<?xml version="1.0" encoding="utf-8"?>
<!-- Generator: Adobe Illustrator 25.2.1, SVG Export Plug-In . SVG Version: 6.00 Build 0)  -->
<svg version="1.1" id="Layer_1" xmlns="http://www.w3.org/2000/svg" xmlns:xlink="http://www.w3.org/1999/xlink" x="0px" y="0px"
	 viewBox="0 0 864 864" style="enable-background:new 0 0 864 864;" xml:space="preserve">
<style type="text/css">
	.st0{fill:#FBB040;}
	.st1{fill:#BE7BB4;}
	.st2{fill:#F1F2F2;}
	.st3{fill:#70C8EE;}
	.st4{fill:#F06EAA;}
</style>
<path d="M669.83,456.09c13.58-55.1-24.31-122.44-85.45-119.8c0.64-36.41-16.14-65.7-48.26-82.99
	c-23.67-15.12-52.12-21.84-79.81-15.89c-3-14.95-9.02-29.38-17.62-42.08c-8.76-12.61-35.8-46.89-49.42-23.37
	c-2.62,5.64-3.23,12.33-4.46,18.37c-4.23,20.12-7.93,40.36-12.42,60.42C329.16,180.3,285.93,109.85,242.7,39.4
	c-3.57-5.83-12.91-2.08-11.11,4.68c18.69,69.91,40.07,139.1,64.2,207.32c-21.2-12.6-46.35-18.38-71-15.42
	c-4.81,0.58-7.26,4.66-5.25,9.15c8.21,18.33,16.41,36.66,24.62,54.99c7.13,15.92,13.73,32.43,25.27,45.74
	c-11.97,20.69-16.55,42.99-19.14,66.07c-13.48,2.73-27.84,0.13-39.7-7.63c-2.75-1.79-6.71-0.56-8.32,2.18
	c-1.73,2.95-0.58,6.52,2.18,8.32c11.38,7.39,24.84,10.8,38.25,10.17c-2.59,2.56-5.84,4.36-9.12,5.88c0.53-0.26,0.6-0.29,0.49-0.24
	c-2.58,1.17-5.32,1.82-8.09,2.32c-1.36,0.13-2.74,0.21-4.11,0.19c-3.18-0.02-6.22,2.81-6.08,6.08c0.99,12.86,25.91,2.42,31.63-2.36
	c-7.11,70.34-33.68,73.46-60.47,126.63c-21.94,46.6,8.02,89.71,57.3,94.67c61.23,5.09,103.75-47.78,151.08-77.73
	c17.02,65.67,25.11,133.6,23.84,201.44c-0.14,7.82,12.02,7.83,12.16,0c1.21-70-7.22-140.17-25.11-207.86
	c1.21-0.65,2.44-1.27,3.67-1.89c3.87,52.91,36.41,100.35,88.24,115.67c13.05,23.8,29.03,49.75,57.58,55.87
	c13.66,2.93,27.63,0.6,38.59-8.36c11.24-9.19,17.83-23.41,24.96-35.72C655.2,629.44,745.69,528.52,669.83,456.09z"/>
<path d="M789.27,115.98c3.02-12.26-5.41-27.24-19.01-26.65c0.14-8.1-3.59-14.61-10.74-18.46c-5.27-3.36-11.6-4.86-17.75-3.53
	c-0.67-3.33-2.01-6.54-3.92-9.36c-1.95-2.81-7.96-10.43-10.99-5.2c-0.58,1.26-0.72,2.74-0.99,4.09c-0.94,4.48-1.76,8.98-2.76,13.44
	c-9.62-15.67-19.23-31.35-28.85-47.02c-0.8-1.3-2.87-0.46-2.47,1.04c4.16,15.55,8.91,30.94,14.28,46.12
	c-4.72-2.8-10.31-4.09-15.8-3.43c-1.07,0.13-1.61,1.04-1.17,2.03c1.83,4.08,3.65,8.16,5.48,12.23c1.59,3.54,3.05,7.21,5.62,10.18
	c-2.66,4.6-3.68,9.56-4.26,14.7c-3,0.61-6.19,0.03-8.83-1.7c-0.61-0.4-1.49-0.12-1.85,0.49c-0.38,0.66-0.13,1.45,0.49,1.85
	c2.53,1.64,5.53,2.4,8.51,2.26c-0.58,0.57-1.3,0.97-2.03,1.31c0.12-0.06,0.13-0.07,0.11-0.05c-0.57,0.26-1.18,0.4-1.8,0.52
	c-0.3,0.03-0.61,0.05-0.92,0.04c-0.71-0.01-1.38,0.63-1.35,1.35c0.22,2.86,5.76,0.54,7.04-0.52c-1.58,15.65-7.49,16.34-13.45,28.17
	c-4.88,10.37,1.78,19.96,12.75,21.06c13.62,1.13,23.08-10.63,33.61-17.29c3.79,14.61,5.59,29.72,5.3,44.81
	c-0.03,1.74,2.67,1.74,2.7,0c0.27-15.57-1.61-31.18-5.59-46.24c0.27-0.15,0.54-0.28,0.82-0.42c0.86,11.77,8.1,22.33,19.63,25.73
	c2.9,5.29,6.46,11.07,12.81,12.43c3.04,0.65,6.15,0.13,8.58-1.86c2.5-2.04,3.97-5.21,5.55-7.95
	C786.02,154.54,806.15,132.09,789.27,115.98z M721.97,73.63c0,1.1,0,2.19-0.19,3.28c-0.15,0.98-0.04,1.99-0.29,2.95
	c-0.41,1.91-1.22,3.55-3,4.5c-1.62,0.87-3.5,0.76-4.57-0.89c-1.36-2.36-2.03-5.06-3.05-7.58c3.27-2.36,5.58-5.94,6.43-9.86
	C718.87,68.57,720.42,71.1,721.97,73.63z M704.33,53.81c-0.23,0.28-0.48,0.55-0.76,0.79c-2.35-7.22-4.57-14.49-6.64-21.8
	c3.01,4.9,6.01,9.79,9.02,14.69C705.9,49.68,705.7,52.02,704.33,53.81z M704.46,57.36c2.01-1.42,3.38-3.62,3.82-6.05
	c2.22,3.63,4.45,7.25,6.67,10.88c0.14,4.23-1.75,8.39-5.03,11.04C708.03,67.96,706.21,62.67,704.46,57.36z M696.8,79.67
	c-1.51-3.37-3.01-6.73-4.52-10.1c5.55-0.17,11.09,1.68,15.36,5.28c0.98,2.67,1.92,5.36,2.97,8.01c-3.69,0.88-6.63,3.23-8.87,6.24
	C699.53,86.33,698.23,82.87,696.8,79.67z M731.3,135.29c-0.06,1.21-0.07,2.44-0.04,3.66c-6.6,2.82-11.78,8.04-17.55,12.2
	c3.19-4.04,5.18-8.98,5.82-14.09c0.09-0.73-0.69-1.35-1.35-1.35c-0.81,0-1.26,0.62-1.35,1.35c-1.14,13.87-19.17,28.74-31.19,16.82
	c-6.67-7.25,0.3-16.65,5.16-22.77c2.93-3.77,5.16-8.09,6.13-12.79c1.92-8.43,1.11-17.64,5.53-25.37c2-3.61,5.26-6.95,9.49-7.63
	c2.93,4.09,9.13,2.09,11.11-1.87c0.44,0.59,1.45,0.49,1.92,0.02c0.57-0.57,0.45-1.33,0-1.91c-0.38-0.58-0.63-1.63-0.61-2.42
	c0.15-1.07,0.23-2.16,0.27-3.25c0.23-1.38,0.57-2.74,0.89-4.09c1.33-5.61,2.32-11.31,3.51-16.96c0.06-0.27,0.11-0.89,0.35-1.08
	c0.5-0.39,1.55,0.59,1.92,0.91c7.69,6.37,10.98,18.32,5.68,27.17c-0.43,0.81-0.12,1.73,0.81,1.99c3.77,0.97,5.76,4.88,6.68,8.4
	c1.36,7.23-3.33,13.73-6.45,19.87C734.28,119.27,731.72,127.16,731.3,135.29z M738.5,154.99c-7.77-12.8-4.69-29.26,2.02-41.84
	c3.44-6.53,8.27-13.81,6.58-21.57c-0.85-3.88-3.27-8.14-7.01-9.81c1.8-3.68,2.43-7.75,2.07-11.77c2.81-0.5,5.7-0.68,8.5-0.03
	c4.15,1.05,8.05,3.2,11.36,5.89c7.82,6.78,5.9,18.48,3.59,27.41c-6.59,19.39-33.85,33.81-22.25,57.12
	C741.48,158.88,739.83,157.08,738.5,154.99z M743.43,146.78c2.57-16.94,19.61-26.67,24.71-42.57c1.24-3.94,1.73-8.08,2.05-12.18
	c12.76-0.49,19.43,13.81,16.11,24.9c-1.65,6.73-5.42,12.63-9.78,17.93c-4.43,5.2-9.01,10.29-13.81,15.16
	c-4.45,4.32-9.31,8.66-11.6,14.54C744.93,161.33,742.71,153.31,743.43,146.78z M787.98,147.41c-4.99,8.89-10.05,17.8-15.37,26.5
	c-1.48,2.13-3.49,3.6-6.16,3.61c-6.54,0.03-10.22-6.22-12.99-11.28c-0.01-0.04-0.02-0.08-0.03-0.12c1.9-5.56,6.49-9.65,10.61-13.62
	c9.4-10.05,20.44-20.04,24.54-33.58C796.14,126.81,792.86,138.97,787.98,147.41z M740.06,102.33c-1.7-0.31-3.41-0.61-5.11-0.92
	c-1.81,5.18-6.49,9.28-11.94,10.16c-0.72,0.12-1.45-0.18-1.66-0.94c-0.18-0.65,0.22-1.55,0.94-1.66c4.82-0.78,8.92-4.33,10.29-8.99
	c-0.02-0.95,0.84-1.33,1.63-1.53c0.76-0.34,1.47-0.78,2.13-1.27c0,0,0,0,0,0c0,0,0,0,0-0.01c0.01-0.01,0.02-0.02,0.04-0.03
	c0.12-0.09,0.04-0.05-0.01-0.01c0.83-0.64,1.57-1.35,2.22-2.17c-0.05,0.08,0.06-0.07,0.08-0.09c-0.01,0.01-0.02,0.03-0.03,0.04
	c0.93-1.68,3.34-0.5,2.46,1.2c-0.85,1.19-1.87,2.24-3.03,3.12c0.91,0.16,1.82,0.33,2.73,0.49c0.74,0.13,1.09,1,0.94,1.66
	C741.55,102.14,740.75,102.46,740.06,102.33z M704.51,144.61c-0.34,1.04-1.69,1.23-2.52,1.79c-0.3,0.7-1.24,0.9-1.88,0.55
	c-1.78-0.99-2.74-2.9-2.89-4.88c-0.15-2.03,0.71-3.94,2.32-5.17c0.6-0.46,1.49-0.07,1.85,0.49c0.43,0.67,0.07,1.42-0.48,1.85
	c0.3-0.23,0.02-0.01-0.04,0.05c-0.51,0.45-0.79,1.1-0.91,1.76c0-0.01,0-0.01-0.01-0.01c0,0,0,0.02,0,0.03
	c-0.04,0.2-0.01,0.12,0,0.04c0,0.21-0.03,0.88-0.03,0.97c0,0.06,0.07,0.35,0.01,0.13c-0.06-0.22,0.02,0.08,0.03,0.13
	c0.06,0.29,0.14,0.58,0.25,0.86c0.04,0.1,0.02,0.06-0.05-0.12c0.07,0.29,0.37,0.69,0.56,0.93c0.93-0.36,1.79-1.26,2.84-1.07
	C704.27,143.11,704.72,143.92,704.51,144.61z"/>
<path class="st0" d="M267.86,123.69c-4.45-14.75-8.78-29.54-12.98-44.37c13.51,22.01,27.02,44.03,40.52,66.04
	c-0.14,11.3-1.52,24.15-10.68,31.95C278.94,159.49,273.27,141.63,267.86,123.69z M317.62,273.01c4.54,11.34,7.58,23.45,13.69,34.08
	c11.67,16.01,32.75-0.82,34.01-16.25c1.22-9.25,2.09-18.67,2.15-28.02c-6.98-11.38-13.96-22.75-20.94-34.13
	C342.72,246.32,332.33,262.42,317.62,273.01z M288.74,189.69c7.87,23.89,16.07,47.66,24.59,71.33
	c14.71-11.91,23.21-30.59,22.59-49.6c-10-16.3-20-32.6-30-48.9C303.95,173.42,297.79,183.3,288.74,189.69z"/>
<path class="st1" d="M687.06,518.76c-0.45-18.88-6.6-38.86-20.22-52.32c-8.74,30.52-26.47,57.21-46.58,81.47
	c-10.5,12.67-21.68,24.75-32.77,36.91c-10.12,11.09-20.13,22.14-30.94,32.58c-18.52,17.87-39.15,36.24-47.69,61.23
	c0.06,0.18,0.11,0.36,0.16,0.54c12.47,22.76,29.04,50.86,58.41,50.71c11.97-0.06,21.03-6.68,27.67-16.25
	c8.53-12.29,15.43-25.88,22.92-38.81c15.46-26.7,31.55-53.14,46.17-80.31C676.7,571.23,687.69,545.7,687.06,518.76z"/>
<path class="st2" d="M254.32,289.99c-6.77-15.13-13.55-30.26-20.32-45.39c24.97-0.77,49.86,7.53,69.03,23.73
	c1.65,4.55,3.29,9.11,4.96,13.65c2.39,6.5,4.76,13.02,7.25,19.49c0.37,0.96,0.75,1.9,1.14,2.85c-16.59,3.95-29.82,14.53-39.86,28.04
	C266.59,319.91,260.75,304.36,254.32,289.99z M409.39,540c-0.28,5.45-0.33,10.95-0.16,16.46c-0.78,0.1-1.55,0.33-2.29,0.69
	c-28.38,13.79-51.4,35.57-76.6,54.14c6.48-8.25,11.95-17.34,16.17-27.01c5.09-11.66,8.38-23.7,10-36.31
	c0.42-3.26-3.09-6.08-6.08-6.08c-3.63,0-5.66,2.81-6.08,6.08c-4.83,37.75-29.96,73.65-65.39,88.51c-9.54,4-19.71,6.35-30.02,6.98
	c-0.82-0.04-1.64-0.07-2.46-0.14c-15.7-1.31-31.49-8.2-42.34-19.74c-5.22-5.55-9.06-12.27-10.95-19.67
	c-2.47-9.68-1.37-19.77,1.52-29.23c6.2-20.27,20.2-36.72,32.6-53.46c6.34-8.57,12.43-17.39,17.1-26.99
	c4.71-9.7,8.09-19.98,10.46-30.49c4.74-20.97,5.84-42.52,8.99-63.74c2.61-17.56,7.05-34.74,15.85-50.29
	c7.55-13.33,18.53-26.09,33.21-31.66c3.08-1.17,6.24-2.02,9.47-2.63c0.51,0.68,1.05,1.35,1.62,2c7.28,8.25,19.14,10.16,29.18,6.29
	c8.5-3.28,14.93-9.14,19.12-16.68c0.02,0.02,0.03,0.05,0.05,0.07c2.02,2.59,6.48,2.12,8.59,0c2.56-2.56,2.02-5.99,0-8.59
	c0.42,0.54-0.64-1.15-0.77-1.39c-0.37-0.69-0.48-1.02-0.55-1.23c-0.54-1.54-1.03-3.61-1.2-4.94c-0.13-1.04-0.2-2.17-0.23-3.33
	c0.7-4.83,1.04-9.72,1.21-14.62c1.03-6.19,2.57-12.31,4.02-18.39c5.32-22.33,9.38-45.01,13.98-67.49c0.59-2.91,1.16-5.82,1.79-8.73
	c0.26-1.21,0.51-4.02,1.59-4.86c2.24-1.76,6.97,2.66,8.65,4.08c6.64,5.64,12.66,12.08,17.69,19.2
	c9.86,13.98,16.66,30.34,18.79,47.37c2.41,19.25-1.06,38.8-10.95,55.56c-1.04,1.76-1.08,3.46-0.52,4.92
	c0.44,1.82,1.75,3.41,4.16,4.01c10.42,2.6,17.61,10.23,22.81,19.44c1.19,2.11,2.25,4.29,3.26,6.5c0.1,0.21,0.19,0.43,0.28,0.65
	c0.17,0.42,0.35,0.85,0.51,1.27c0.37,0.94,0.72,1.89,1.06,2.85c0.81,2.31,1.57,4.66,2.11,7.04c3.22,14.16-0.37,29.19-5.44,42.45
	c-6.25,16.35-15.48,31.39-23.57,46.86C422.78,467.99,411.29,503.48,409.39,540z M288.38,577.21c-0.84-1.3-2.08-2.44-3.63-2.79
	c-1.64-0.37-3.18-0.17-4.68,0.61c-2.7,1.4-5.4,2.8-8.09,4.2c-0.11-0.12-0.22-0.25-0.34-0.37c-0.01-0.01-0.01-0.01-0.02-0.02
	c-0.36-0.56-0.76-1.09-1.09-1.67c-0.17-0.29-1.21-1.81-1.08-2.14c0.32,0.78,0.4,0.95,0.23,0.52c-0.07-0.19-0.14-0.38-0.21-0.57
	c-0.13-0.38-0.26-0.76-0.37-1.15c-0.21-0.71-0.38-1.43-0.53-2.16c-0.04-0.22-0.4-1.59-0.12-0.59c0.28,0.97-0.02-0.34-0.04-0.61
	c-0.03-0.38,0.14-3.39,0.13-4.35c0.01-0.1,0.02-0.18,0-0.24c0-0.02,0-0.03,0.01-0.04c0.08-0.39,0.16-0.79,0.26-1.18
	c0.18-0.72,0.41-1.41,0.65-2.11c0.05-0.15,0.08-0.25,0.11-0.33c0.13-0.25,0.28-0.51,0.32-0.59c0.37-0.71,0.8-1.37,1.23-2.04
	c0.02-0.04,0.03-0.05,0.04-0.08c0.25-0.29,0.5-0.58,0.76-0.86c0.23-0.24,0.47-0.48,0.71-0.71c0.27-0.25,1.51-1.25,0.17-0.22
	c2.51-1.93,4.11-5.32,2.18-8.32c-1.6-2.48-5.62-4.25-8.32-2.18c-7.2,5.53-11.09,14.12-10.41,23.24c0.66,8.9,4.98,17.5,12.98,21.95
	c2.78,1.54,6.76,0.76,8.32-2.18c0.05-0.09,0.07-0.19,0.12-0.29c2.85-1.48,5.69-2.96,8.54-4.43c1.31-0.68,2.41-2.23,2.79-3.63
	C289.39,580.44,289.21,578.5,288.38,577.21z M425.78,387.73c7.66,1.38,15.32,2.76,22.98,4.14c3.12,0.56,6.7-0.85,7.48-4.24
	c0.68-2.97-0.9-6.87-4.24-7.48c-4.09-0.73-8.17-1.47-12.26-2.21c0.17-0.13,0.34-0.26,0.51-0.39c5.01-3.91,9.42-8.46,13.1-13.65
	c1.85-2.6,0.54-6.88-2.18-8.32c-3.13-1.65-6.34-0.59-8.32,2.18c-0.18,0.25-0.36,0.5-0.54,0.75c-0.08,0.1-0.15,0.18-0.2,0.25
	c-0.3,0.37-0.59,0.74-0.9,1.1c-0.89,1.05-1.82,2.06-2.77,3.04c-1,1.02-2.03,2.01-3.1,2.97c-0.54,0.49-1.09,0.96-1.65,1.43
	c-0.26,0.22-1.23,0.8-1.56,1.2c-0.03,0.04-0.07,0.08-0.1,0.12c-0.01,0.01-0.03,0.03-0.03,0.04c-0.29,0.22-0.58,0.43-0.88,0.65
	c-0.59,0.42-1.18,0.83-1.78,1.24c-1.12,0.75-2.27,1.45-3.45,2.11c-1.13,0.63-2.3,1.19-3.48,1.73c-0.3,0.11-0.59,0.22-0.88,0.33
	c-0.64,0.23-1.3,0.43-1.96,0.61c-2.57,0.72-4.5,3.29-4.47,5.95c-6.13,20.96-24.59,36.89-46.25,40.41c-3.24,0.53-5.05,4.56-4.24,7.48
	c0.95,3.45,4.22,4.77,7.48,4.24C396.59,429.43,417.66,411.01,425.78,387.73z"/>
<path class="st3" d="M550.62,606.22c41.02-44.57,90.26-88.07,106.06-148.74c15.31-49.15-15.77-114.59-72.44-111.92
	c-1.85,29.53-7.49,59.35-22.82,85.06c-21.29,38.05-53.66,68.34-76.25,105.52c-27.62,39.74-34.11,108.05,13.33,135.43
	C508.75,645.14,530.63,625.64,550.62,606.22z"/>
<path class="st4" d="M452.37,587.2c11.68-76.24,87.67-120.12,111.26-191.1c10.38-40.13,19.04-92.75-16.12-123.22
	c-24.67-20.33-57.11-33.86-89.28-26.34c1.62,18.04-1.21,36.35-9.29,52.9c55.44,31.02,28.59,99.31,1.93,141.04
	c-34.65,63.98-48.77,160.11,12.74,212.38C452.66,633.28,449.26,609.14,452.37,587.2z"/>
</svg>
